PathFileType	4	(x/y/z)	S08_M20_T15
DataRate	CameraRate	NumFrames	NumMarkers	Units	OrigDataRate	OrigDataStartFrame	OrigNumFrames
240	240	4	51	mm	240	255	509
Frame#	Time	Sternum			R.Acromium			L.Acromium			Top.Head			R.ASIS			L.ASIS			R.PSIS			L.PSIS			R.Great.Tro			L.Great.Tro			R.Iliac.Crest			L.Iliac.Crest			V.Sacral			R.Thigh.Upper.Post			R.Thigh.Lower.Ant			R.Thigh.Lower.Post			R.Thigh.Upper.Ant			R.Knee.Lat			R.Knee.Med			R.Shank.Upper.Post			R.Shank.Lower.Ant			R.Shank.Lower.Post			R.Shank.Upper.Ant			R.Ankle.Lat			R.Ankle.Med			R.Heel.Upper			R.Heel.Med			R.Heel.Lat			R.Toe.Lat			R.Toe.Med			R.Toe.Tip			L.Thigh.Upper.Post			L.Thigh.Lower.Ant			L.Thigh.Lower.Post			L.Thigh.Upper.Ant			L.Knee.Lat			L.Knee.Med			L.Shank.Upper.Post			L.Shank.Lower.Ant			L.Shank.Lower.Post			L.Shank.Upper.Ant			L.Ankle.Lat			L.Ankle.Med			L.Heel.Upper			L.Heel.Med			L.Heel.Lat			L.Toe.Lat			L.Toe.Med			L.Toe.Tip			Cervical.Spine			Back			
		X1	Y1	Z1	X2	Y2	Z2	X3	Y3	Z3	X4	Y4	Z4	X5	Y5	Z5	X6	Y6	Z6	X7	Y7	Z7	X8	Y8	Z8	X9	Y9	Z9	X10	Y10	Z10	X11	Y11	Z11	X12	Y12	Z12	X13	Y13	Z13	X14	Y14	Z14	X15	Y15	Z15	X16	Y16	Z16	X17	Y17	Z17	X18	Y18	Z18	X19	Y19	Z19	X20	Y20	Z20	X21	Y21	Z21	X22	Y22	Z22	X23	Y23	Z23	X24	Y24	Z24	X25	Y25	Z25	X26	Y26	Z26	X27	Y27	Z27	X28	Y28	Z28	X29	Y29	Z29	X30	Y30	Z30	X31	Y31	Z31	X32	Y32	Z32	X33	Y33	Z33	X34	Y34	Z34	X35	Y35	Z35	X36	Y36	Z36	X37	Y37	Z37	X38	Y38	Z38	X39	Y39	Z39	X40	Y40	Z40	X41	Y41	Z41	X42	Y42	Z42	X43	Y43	Z43	X44	Y44	Z44	X45	Y45	Z45	X46	Y46	Z46	X47	Y47	Z47	X48	Y48	Z48	X49	Y49	Z49	X50	Y50	Z50	X51	Y51	Z51	

255	1.0583	-266.5	1235.7	354.82	-373.33	1469	536.26	-399.02	1499.5	201.67	-366.93	1788.1	383.1	-279.96	1024	472.75	-276.82	1023	239.99	-480.86	1046	391.64	-475.57	1047.2	298.38	-352.36	913.62	540.34	-355.33	913.37	169.1	-378.07	1091.7	515.38	-374.16	1100.8	205.29	-494.86	1005.3	344.4	-390.84	714.56	520.02	-323.81	611.09	479.97	-392.29	625.56	498.94	-313.27	702.97	504.6	-367.64	517.38	470.48	-402.65	526.64	347.64	-455.09	340.83	477.12	-403.75	273.79	447.23	-465.81	265.2	464.88	-392.94	349.82	460.01	-490.57	101.67	418.98	-467.05	116.86	341.65	-545.02	68.552	372.79	-534.28	40.748	345.98	-539.72	45.231	407.79	NaN	NaN	NaN	-346.02	42.187	330.55	-279.84	55.22	377.89	-273.2	712.4	177.21	-155.22	669.25	193.01	-218.24	640.2	190.56	-206.26	741.02	174.05	-167.78	561.86	204.21	-156.98	554.43	330.38	-273.02	419.5	193.35	-241.61	312.98	207.04	-301.85	351.91	204.58	-217.44	384.99	196.59	-345.41	182.24	205.3	-320.46	176.73	289.9	-406.02	171.32	256.36	-402.87	133.35	284.47	-408.86	144.73	221.07	-247.14	81.708	180.07	-223.23	74.186	292.15	-159.22	76.278	241.7	-449.85	1529.7	367.85	-500.29	1245.2	373.75
256	1.0625	-261.83	1235.3	354.88	-368.41	1468.7	536.24	-394.08	1499.2	201.65	-361.61	1787.8	382.91	-275.62	1023.6	472.91	-272.18	1022.8	240.14	-476.35	1045.8	391.5	-470.97	1047	298.24	-348.48	913.37	540.32	-350.53	913.29	169.07	-373.73	1091.4	515.39	-369.37	1100.7	205.27	-490.32	1005.1	344.23	-388.28	714.64	520.1	-321.84	610.72	480.14	-390.22	625.61	499.02	-310.76	702.57	504.82	-366.19	517.21	470.68	-400.94	526.61	347.74	-454.3	340.96	477.21	-403.16	273.8	447.41	-465.23	265.37	464.95	-392.12	349.75	460.14	-490.41	101.86	418.91	-466.73	117.06	341.63	-545.04	68.696	372.72	-534.13	40.814	345.99	-539.66	45.357	407.74	NaN	NaN	NaN	-345.9	42.185	330.55	-279.75	55.072	377.96	-267.66	712.52	177.25	-149.52	669.9	193.28	-212.39	640.6	190.72	-200.84	741.44	174.23	-161.34	562.34	204.49	-150.86	555.07	330.6	-263.81	417.52	193.49	-230.1	311.69	207.33	-291.17	349.32	204.73	-207.49	384.21	196.85	-331.05	178.65	205.46	-305.89	173.74	290.14	-391.4	166.25	256.48	-387.31	128.42	284.69	-393.55	139.49	221.28	-230.29	80.384	180.5	-206.22	73.75	292.65	-142.3	77.284	242.2	-444.91	1529.4	367.84	-495.6	1245	373.79
257	1.0667	-257.16	1234.9	354.93	-363.49	1468.3	536.21	-389.13	1498.9	201.62	-356.31	1787.5	382.71	-271.26	1023.2	473.07	-267.52	1022.5	240.28	-471.83	1045.6	391.35	-466.37	1046.8	298.1	-344.58	913.1	540.31	-345.73	913.18	169.05	-369.38	1091	515.39	-364.59	1100.4	205.25	-485.78	1004.9	344.06	-385.68	714.69	520.19	-319.84	610.35	480.31	-388.11	625.65	499.1	-308.23	702.15	505.02	-364.72	517.03	470.88	-399.2	526.57	347.83	-453.49	341.09	477.3	-402.56	273.79	447.56	-464.63	265.54	465.02	-391.28	349.68	460.26	-490.25	102.05	418.85	-466.42	117.25	341.61	-545.06	68.841	372.65	-533.98	40.883	346	-539.6	45.482	407.68	NaN	NaN	NaN	-345.76	42.19	330.56	-279.66	54.929	378.03	-262.19	712.57	177.28	-143.9	670.45	193.55	-206.63	640.91	190.88	-195.49	741.77	174.4	-155.01	562.73	204.77	-144.85	555.61	330.83	-254.63	415.5	193.66	-218.63	310.41	207.62	-280.5	346.72	204.92	-197.6	383.42	197.12	-316.64	175.14	205.64	-291.27	170.81	290.41	-376.67	161.24	256.64	-371.62	123.58	284.95	-378.15	134.34	221.55	-213.48	79.191	180.92	-189.23	73.439	293.12	-125.44	78.417	242.66	-439.96	1529.1	367.81	-490.91	1244.7	373.82
258	1.0708	-252.48	1234.4	354.97	-358.57	1468	536.18	-384.18	1498.5	201.58	-351.01	1787.1	382.51	-266.89	1022.7	473.21	-262.86	1022.2	240.41	-467.3	1045.3	391.2	-461.75	1046.5	297.95	-340.67	912.81	540.3	-340.93	913.02	169.01	-365.02	1090.7	515.38	-359.83	1100.2	205.22	-481.23	1004.6	343.89	-383.05	714.73	520.27	-317.79	609.96	480.48	-385.97	625.67	499.17	-305.68	701.73	505.2	-363.21	516.84	471.07	-397.45	526.52	347.93	-452.65	341.21	477.39	-401.94	273.76	447.68	-464.02	265.71	465.09	-390.42	349.59	460.36	-490.08	102.25	418.78	-466.12	117.45	341.58	-545.07	68.986	372.57	-533.82	40.953	346	-539.54	45.606	407.62	NaN	NaN	NaN	-345.61	42.201	330.56	-279.57	54.789	378.11	-256.79	712.55	177.31	-138.37	670.9	193.81	-200.96	641.13	191.03	-190.2	742	174.55	-148.77	563.04	205.04	-138.93	556.06	331.06	-245.5	413.45	193.86	-207.2	309.16	207.93	-269.85	344.11	205.14	-187.78	382.62	197.4	-302.2	171.71	205.86	-276.61	167.96	290.71	-361.86	156.3	256.86	-355.83	118.82	285.25	-362.66	129.29	221.87	-196.69	78.136	181.32	-172.26	73.259	293.57	-108.65	79.683	243.07	-435.01	1528.8	367.77	-486.21	1244.5	373.83
